<?xml version="1.0" standalone="no"?>
<!DOCTYPE svg PUBLIC "-//W3C//DTD SVG 20010904//EN"
 "http://www.w3.org/TR/2001/REC-SVG-20010904/DTD/svg10.dtd">
<svg version="1.0" xmlns="http://www.w3.org/2000/svg"
 width="640.000000pt" height="640.000000pt" viewBox="0 0 640.000000 640.000000"
 preserveAspectRatio="xMidYMid meet">
<metadata>
Created by potrace 1.11, written by Peter Selinger 2001-2013
</metadata>
<g transform="translate(0.000000,640.000000) scale(0.100000,-0.100000)"
fill="#000000" stroke="none">
<path d="M2938 6395 c-1 -1 -36 -5 -77 -9 -121 -10 -427 -66 -481 -89 -34 -14
-39 -15 -90 -26 -91 -20 -288 -94 -452 -170 -75 -35 -96 -54 -46 -41 59 15
224 28 396 30 88 1 95 3 144 36 68 46 79 51 43 20 -16 -14 -33 -25 -37 -26 -5
0 -8 -6 -8 -12 0 -10 21 -12 77 -10 105 3 116 7 160 48 47 44 149 124 158 124
4 0 -17 -19 -47 -42 -79 -62 -133 -118 -117 -119 60 -6 188 -3 207 5 12 5 32
26 45 45 12 20 41 60 64 88 24 29 43 54 43 56 0 8 -145 -4 -154 -13 -6 -6 -15
-10 -20 -10 -6 0 -4 5 4 11 11 7 -12 9 -77 6 -51 -2 -93 0 -93 5 0 4 17 8 38
7 167 -1 332 9 348 22 11 9 15 9 10 2 -5 -9 0 -13 13 -13 36 0 23 -15 -14 -16
-25 0 -42 -8 -61 -30 -37 -42 -104 -141 -104 -154 0 -7 38 -10 118 -8 l117 3
13 45 c7 25 19 65 26 90 16 54 12 63 -26 58 -16 -3 -31 -1 -34 4 -3 4 15 8 40
8 25 0 46 4 46 8 0 5 7 17 16 28 14 18 15 18 4 -4 -9 -19 -8 -24 12 -32 22 -8
20 -11 -12 -14 -16 -1 -65 -170 -54 -187 7 -11 231 -12 238 -1 5 9 -29 170
-39 180 -3 4 -30 9 -58 13 l-52 6 52 2 c52 1 52 1 43 27 -7 16 -7 23 0 19 6
-3 10 -12 10 -20 0 -8 8 -18 17 -24 10 -5 15 -12 12 -16 -4 -3 6 -47 20 -98
l27 -92 117 -3 c64 -1 117 1 117 6 0 29 -118 182 -140 182 -5 0 -14 9 -20 21
-11 19 -10 20 17 6 15 -8 34 -12 41 -10 6 3 12 0 12 -7 0 -6 -4 -8 -10 -5 -20
12 -9 -8 28 -54 22 -25 51 -65 67 -88 15 -23 37 -46 49 -49 33 -11 206 -13
206 -2 0 11 -31 42 -105 107 -40 35 -42 38 -10 15 22 -16 51 -38 65 -51 72
-63 87 -74 105 -78 32 -7 175 -11 175 -4 0 9 -40 42 -87 72 -24 15 -43 30 -43
33 0 3 12 -3 28 -13 15 -10 34 -22 43 -28 8 -5 36 -24 62 -41 42 -28 55 -31
129 -33 79 -2 82 -1 63 15 -19 15 -18 15 8 0 15 -9 55 -19 89 -22 34 -3 65 -7
69 -10 4 -2 9 1 11 7 3 8 10 9 23 2 11 -6 56 -13 100 -16 l80 -6 -55 25 c-229
108 -447 187 -537 195 -5 0 -12 4 -18 9 -19 15 -220 59 -370 80 -38 6 -86 13
-105 16 -37 6 -606 15 -612 9z m704 -90 c10 11 317 -1 328 -12 3 -3 -34 -3
-83 -1 -48 3 -90 2 -93 -3 -2 -5 -16 -4 -30 1 -14 6 -48 10 -76 10 l-51 0 19
-22 c19 -23 19 -23 -1 -7 -28 23 -63 33 -114 31 -25 0 -39 3 -32 7 7 5 24 6
38 3 18 -3 24 -1 19 6 -4 7 7 6 33 -3 21 -7 41 -12 43 -10z m-232 8 c0 -5 -22
-8 -50 -8 -27 0 -50 3 -50 8 0 4 23 7 50 7 28 0 50 -3 50 -7z m-846 -14 c4 -3
-12 -6 -35 -7 -22 -1 -45 -4 -50 -8 -9 -5 -13 9 -5 17 6 6 84 4 90 -2z m-106
-4 c-3 -3 -25 -7 -49 -10 -29 -3 -36 -2 -19 3 30 10 75 14 68 7z m1562 -11 c0
-2 -9 -4 -20 -4 -11 0 -20 4 -20 9 0 5 9 7 20 4 11 -3 20 -7 20 -9z m-1550
-68 c0 -3 -15 -14 -32 -26 l-33 -22 30 26 c31 27 35 29 35 22z m-301 -89 c-2
-1 -13 -9 -24 -17 -19 -14 -19 -14 -6 3 7 9 18 17 24 17 6 0 8 -1 6 -3z"/>
<path d="M2542 6078 c-35 -9 -80 -61 -170 -195 -31 -48 -52 -88 -49 -97 5 -13
28 -15 142 -12 154 4 161 7 190 84 10 26 35 82 56 124 22 43 39 84 39 91 0 10
-21 13 -88 13 -49 0 -103 -4 -120 -8z"/>
<path d="M2783 6068 c-23 -25 -71 -126 -108 -229 -22 -60 -14 -63 142 -61 76
2 146 5 155 8 20 6 25 20 34 89 3 28 12 81 19 119 7 38 11 75 8 82 -4 11 -32
14 -117 14 -104 0 -114 -2 -133 -22z"/>
<path d="M3072 6077 c-6 -7 -13 -26 -16 -42 -16 -95 -19 -126 -20 -185 l-1
-65 157 -3 c145 -2 158 -1 167 16 6 11 9 21 7 23 -4 4 -6 21 -21 147 -7 59
-16 95 -28 110 -14 17 -230 17 -245 -1z"/>
<path d="M3359 6078 c-5 -47 33 -268 49 -284 9 -10 40 -14 95 -15 45 0 111 -1
146 -1 42 -1 66 4 71 13 9 13 -3 49 -61 182 -51 118 -49 117 -184 117 -85 0
-115 -3 -116 -12z"/>
<path d="M3640 6075 c0 -11 74 -177 117 -262 9 -18 23 -34 32 -34 9 -1 74 -3
144 -4 106 -3 129 0 134 12 7 19 -140 237 -184 271 -29 24 -40 26 -137 28 -79
1 -106 -2 -106 -11z"/>
<path d="M2160 6072 c-84 -6 -102 -14 -203 -94 -119 -95 -227 -196 -227 -213
0 -15 194 -9 224 7 12 6 41 34 66 62 25 28 86 92 137 141 51 50 93 93 93 96 0
5 -32 6 -90 1z"/>
<path d="M2268 6058 c-36 -22 -198 -183 -244 -243 -32 -43 -25 -52 38 -49 24
1 77 2 119 3 86 1 93 5 148 86 47 69 112 155 139 185 12 14 22 28 22 33 0 4
-42 7 -94 6 -75 -1 -101 -5 -128 -21z"/>
<path d="M3906 6068 c4 -7 28 -40 54 -73 26 -33 70 -95 99 -138 32 -46 61 -79
74 -82 40 -8 236 -12 248 -4 18 11 -24 63 -152 190 -65 64 -118 108 -133 111
-15 3 -65 6 -112 7 -68 2 -84 -1 -78 -11z"/>
<path d="M4149 6071 c-6 -2 28 -42 78 -90 49 -47 109 -109 134 -137 67 -76 81
-82 192 -87 62 -3 99 -1 104 6 10 17 -171 182 -287 261 -60 41 -71 45 -137 48
-39 2 -77 2 -84 -1z"/>
<path d="M1949 6060 c-25 -3 -59 -14 -75 -24 -29 -19 -29 -19 -11 1 17 20 17
20 -35 11 -29 -4 -71 -11 -92 -13 -60 -8 -364 -196 -475 -293 l-35 -30 43 8
c23 4 48 13 54 19 6 6 16 11 21 11 6 0 4 -5 -4 -10 -11 -7 3 -9 45 -6 33 3 66
5 72 5 11 1 100 71 171 134 12 11 22 18 22 15 0 -3 -30 -31 -67 -63 -99 -84
-99 -84 4 -79 99 6 100 7 198 99 39 36 112 98 163 136 50 39 92 74 92 78 0 7
-30 8 -91 1z m-159 -74 c0 -2 -8 -10 -17 -17 -16 -13 -17 -12 -4 4 13 16 21
21 21 13z m-60 -39 c0 -2 -10 -12 -22 -23 l-23 -19 19 23 c18 21 26 27 26 19z"/>
<path d="M4350 6059 c0 -4 24 -25 53 -46 57 -42 179 -144 244 -207 23 -22 48
-43 55 -47 15 -8 188 -20 188 -13 0 2 -21 25 -47 50 l-48 46 63 -51 c35 -28
71 -51 80 -52 9 0 38 -3 65 -5 32 -4 47 -2 47 7 0 8 4 8 13 1 18 -15 87 -32
87 -21 0 20 -323 240 -425 290 -27 13 -61 24 -75 25 -14 0 -30 3 -35 6 -6 2
-32 6 -60 7 -48 2 -49 1 -30 -14 13 -11 8 -10 -15 3 -34 19 -160 36 -160 21z
m341 -136 c13 -16 12 -17 -3 -4 -10 7 -18 15 -18 17 0 8 8 3 21 -13z m80 -60
l24 -26 -32 23 c-34 25 -39 30 -25 30 5 0 19 -12 33 -27z"/>
<path d="M2770 5752 c-79 -2 -109 -7 -122 -19 -27 -24 -112 -314 -106 -362 l3
-26 182 -3 c223 -3 217 -6 228 119 4 46 9 92 11 102 1 9 6 53 10 97 5 63 3 81
-7 85 -23 8 -89 10 -199 7z"/>
<path d="M3032 5737 c-18 -20 -19 -25 -26 -112 -14 -159 -18 -202 -21 -221 -2
-12 3 -31 11 -43 14 -20 24 -21 199 -21 176 0 185 1 199 21 8 12 13 29 11 38
-1 9 -6 54 -9 101 -15 185 -24 237 -44 246 -9 3 -81 7 -160 8 -126 1 -145 -1
-160 -17z"/>
<path d="M3450 5750 l-35 -5 1 -60 c0 -51 4 -91 19 -220 1 -11 3 -35 4 -52 0
-18 10 -42 21 -53 19 -19 31 -20 203 -18 l182 3 -1 40 c-1 50 -6 73 -48 213
-18 62 -41 121 -51 132 -15 16 -34 19 -139 22 -66 2 -137 1 -156 -2z"/>
<path d="M2066 5740 c-98 -5 -99 -5 -128 -40 -79 -93 -221 -334 -213 -359 5
-15 21 -17 153 -13 165 4 181 9 208 69 9 21 48 102 85 179 38 78 69 146 69
152 0 14 -58 18 -174 12z"/>
<path d="M2297 5735 c-25 -13 -66 -85 -134 -237 -55 -123 -62 -153 -40 -160 6
-3 85 -4 175 -3 194 2 189 0 222 120 12 44 35 122 52 173 16 52 27 100 24 108
-5 12 -30 14 -143 12 -75 -2 -145 -7 -156 -13z"/>
<path d="M3796 5734 c-3 -9 9 -64 28 -123 19 -58 42 -136 51 -173 25 -99 26
-99 212 -103 87 -2 166 -1 176 2 16 4 18 11 12 40 -3 20 -10 43 -15 52 -5 9
-36 72 -68 141 -87 185 -71 173 -244 177 -129 4 -146 2 -152 -13z"/>
<path d="M4163 5743 c-7 -3 -13 -9 -13 -15 0 -5 33 -78 74 -161 40 -84 76
-161 80 -173 3 -11 16 -30 29 -42 20 -19 37 -21 174 -24 185 -5 185 -5 122
104 -69 119 -170 267 -196 288 -19 15 -42 18 -134 19 -61 1 -114 3 -118 5 -3
2 -12 1 -18 -1z"/>
<path d="M1783 5730 c-91 -5 -98 -8 -148 -55 -58 -55 -241 -308 -247 -340 -3
-19 2 -20 122 -17 69 1 135 8 148 14 13 7 46 50 74 97 28 48 83 132 121 189
39 56 68 105 65 107 -9 9 -40 11 -135 5z"/>
<path d="M4493 5732 c-13 -2 -23 -7 -23 -11 0 -4 24 -41 52 -82 29 -41 82
-123 119 -184 38 -64 76 -115 90 -122 34 -16 257 -23 269 -8 12 14 -52 113
-159 244 -131 161 -122 155 -235 161 -50 3 -101 4 -113 2z"/>
<path d="M1619 5725 c-3 -2 -34 -5 -70 -6 -35 -1 -74 -5 -85 -9 -53 -20 -354
-361 -354 -401 0 -8 163 -3 207 7 21 4 58 46 128 145 17 23 67 87 113 142 45
55 82 103 82 108 0 10 -16 20 -21 14z"/>
<path d="M4754 5719 c-7 -12 -2 -19 86 -124 41 -49 102 -127 134 -173 32 -46
68 -89 79 -97 26 -16 214 -27 223 -13 14 22 -255 334 -332 384 -14 10 -52 19
-87 21 -34 2 -70 5 -79 7 -10 2 -21 0 -24 -5z"/>
<path d="M1314 5702 c-10 -2 -37 -18 -59 -35 l-40 -30 29 31 29 31 -39 -6
c-50 -7 -96 -44 -259 -206 -132 -130 -170 -173 -180 -199 -5 -12 2 -14 39 -8
36 5 53 15 85 51 22 24 41 47 41 52 0 4 5 7 11 7 6 0 -5 -18 -25 -40 -20 -22
-36 -45 -36 -51 0 -7 21 -9 63 -5 34 2 70 5 79 5 9 1 59 52 111 114 51 61 129
150 173 196 43 46 81 87 82 92 3 9 -57 9 -104 1z m-171 -137 c-3 -9 -8 -14
-10 -11 -3 3 -2 9 2 15 9 16 15 13 8 -4z m-45 -45 c-7 -10 -14 -17 -17 -15 -4
4 18 35 25 35 2 0 -1 -9 -8 -20z m-37 -37 c-5 -10 -26 -34 -47 -53 -36 -33
-35 -32 7 17 47 56 55 63 40 36z"/>
<path d="M4971 5702 c2 -6 36 -44 74 -84 82 -86 136 -147 185 -209 86 -108 87
-109 173 -115 45 -3 77 -1 77 4 0 5 -34 50 -76 98 -42 49 -56 69 -32 44 23
-25 63 -69 88 -97 43 -49 58 -57 123 -67 l27 -5 -22 32 c-33 46 -280 295 -341
343 -49 39 -117 65 -117 45 0 -5 14 -21 31 -35 17 -14 27 -26 22 -26 -4 0 -25
16 -47 35 -21 19 -43 35 -50 35 -6 0 -35 3 -65 7 -36 4 -52 2 -50 -5z m350
-199 c13 -17 13 -17 -6 -3 -11 8 -22 16 -24 17 -2 2 0 3 6 3 6 0 17 -8 24 -17z"/>
<path d="M2550 5298 c-36 -13 -55 -70 -86 -258 -3 -14 -7 -36 -9 -50 -22 -116
-24 -155 -7 -172 9 -9 178 -13 384 -9 64 1 75 20 82 141 12 181 17 255 21 287
7 64 -3 68 -195 68 -94 0 -180 -3 -190 -7z"/>
<path d="M3000 5291 c-22 -19 -26 -45 -35 -206 -3 -66 -8 -144 -11 -174 -3
-38 0 -61 11 -78 15 -23 16 -23 230 -23 211 0 215 0 229 23 10 14 14 40 11 72
-1 28 -6 109 -10 180 -9 172 -11 186 -30 204 -24 24 -368 25 -395 2z"/>
<path d="M3473 5294 c-18 -13 -20 -39 -9 -174 4 -52 9 -124 11 -160 7 -94 14
-126 30 -140 9 -8 79 -12 220 -13 193 -1 208 0 221 18 8 11 12 32 9 50 -3 16
-7 42 -9 58 -5 27 -21 118 -31 167 -22 113 -27 138 -37 162 -5 15 -20 30 -32
34 -37 13 -356 11 -373 -2z"/>
<path d="M3941 5296 c-12 -5 -21 -13 -21 -18 0 -5 15 -87 34 -181 19 -95 37
-189 41 -209 3 -20 14 -47 24 -59 18 -22 24 -23 214 -25 236 -3 230 -6 203 99
-39 152 -108 350 -131 372 -20 21 -32 23 -146 25 -68 0 -141 2 -161 3 -20 1
-46 -2 -57 -7z"/>
<path d="M1779 5290 c-46 -3 -83 -11 -94 -20 -10 -8 -34 -49 -52 -90 -19 -41
-41 -89 -49 -107 -27 -60 -84 -212 -88 -235 -2 -13 0 -28 5 -34 11 -14 342 -8
369 6 13 7 28 40 46 98 14 48 46 146 70 218 47 139 51 163 32 166 -32 3 -170
3 -239 -2z"/>
<path d="M2084 5275 c-22 -22 -89 -213 -130 -372 -27 -105 -33 -102 201 -99
139 1 198 6 209 15 16 14 32 57 40 111 3 19 10 60 16 90 6 30 13 67 15 82 3
16 12 58 21 94 25 109 31 105 -173 104 -169 -2 -176 -2 -199 -25z"/>
<path d="M4365 5280 c-3 -10 14 -78 39 -151 24 -74 54 -169 66 -211 29 -101
46 -118 113 -119 29 0 105 -1 171 -2 169 -4 165 -12 91 178 -67 172 -121 282
-146 298 -18 12 -61 17 -176 20 -137 3 -153 2 -158 -13z"/>
<path d="M1418 5282 c-48 -3 -61 -8 -88 -35 -37 -38 -220 -398 -220 -433 0
-27 -13 -26 175 -24 117 1 132 3 152 22 13 12 26 31 29 42 15 48 80 207 120
294 24 52 44 104 44 117 0 22 -3 23 -77 21 -43 0 -104 -2 -135 -4z"/>
<path d="M4763 5283 c-14 -5 -6 -35 38 -128 18 -38 56 -128 84 -199 34 -87 59
-136 76 -148 20 -14 47 -17 154 -19 173 -2 165 -3 165 24 -1 46 -175 388 -223
437 -21 22 -39 30 -66 31 -20 0 -76 2 -126 4 -49 1 -95 0 -102 -2z"/>
<path d="M1141 5270 c-58 -5 -66 -8 -96 -43 -78 -90 -261 -422 -245 -443 5 -5
24 -9 42 -8 18 2 70 4 115 5 69 1 85 5 101 23 11 11 54 91 96 176 43 85 93
180 112 211 34 56 41 78 27 80 -25 4 -97 3 -152 -1z"/>
<path d="M5095 5270 c-7 -11 -4 -17 76 -165 29 -55 73 -140 96 -188 61 -131
66 -135 177 -136 50 -1 101 -3 113 -5 42 -9 43 15 4 94 -74 149 -192 340 -232
376 -17 15 -40 22 -79 23 -30 1 -76 4 -102 6 -26 3 -50 0 -53 -5z"/>
<path d="M998 5265 c-1 -2 -31 -5 -65 -8 -50 -3 -66 -9 -82 -28 -76 -90 -281
-420 -281 -452 0 -11 11 -14 43 -12 23 2 61 3 84 4 52 1 70 19 120 115 41 80
105 189 169 288 24 37 44 72 44 77 0 9 -25 22 -32 16z"/>
<path d="M5364 5255 c-3 -8 20 -53 52 -102 32 -48 83 -135 115 -193 111 -202
94 -187 217 -192 59 -3 72 -1 72 12 0 35 -236 407 -288 453 -12 11 -42 20 -74
23 -29 3 -61 7 -71 9 -10 2 -21 -3 -23 -10z"/>
<path d="M761 5238 c-23 -8 -101 -106 -188 -238 -67 -102 -143 -230 -143 -243
0 -4 23 -5 51 -2 54 4 65 12 99 77 38 72 147 244 203 322 31 43 57 83 57 87 0
9 -51 7 -79 -3z"/>
<path d="M5550 5244 c0 -4 45 -74 100 -155 55 -81 100 -150 100 -153 0 -3 24
-44 52 -91 37 -60 58 -85 73 -86 11 0 35 -2 53 -4 17 -2 32 -1 32 2 0 34 -263
429 -312 471 -16 13 -98 26 -98 16z"/>
<path d="M1994 4760 c-28 -3 -58 -11 -67 -18 -8 -7 -23 -45 -32 -85 -9 -40
-18 -81 -21 -92 -8 -37 -45 -250 -51 -291 -9 -73 -1 -75 226 -73 108 0 205 3
216 6 33 7 44 35 55 135 13 121 21 187 25 207 1 9 6 41 10 71 3 30 8 67 11 81
2 14 -3 34 -10 44 -12 17 -29 19 -162 20 -82 0 -172 -2 -200 -5z"/>
<path d="M2452 4759 c-32 -12 -38 -27 -57 -159 -2 -14 -7 -56 -10 -95 -4 -38
-8 -76 -10 -85 -2 -9 -6 -55 -10 -102 -10 -119 -21 -114 254 -114 278 1 258
-12 266 176 3 74 7 182 10 240 8 153 22 145 -223 146 -109 0 -208 -3 -220 -7z"/>
<path d="M2971 4752 c-27 -21 -27 -21 -36 -303 -6 -184 -5 -208 10 -223 20
-20 -1 -18 258 -20 200 -1 220 0 238 17 20 18 20 28 14 221 -9 276 -10 288
-35 308 -17 14 -49 17 -224 18 -182 1 -205 -1 -225 -18z"/>
<path d="M3504 4745 c-15 -23 -15 -19 2 -375 8 -176 -10 -165 265 -166 274 -1
264 -5 255 111 -4 45 -8 92 -11 104 -2 12 -7 50 -10 84 -3 35 -7 71 -9 82 -2
11 -7 46 -10 77 -13 104 -10 103 -256 104 -208 1 -212 1 -226 -21z"/>
<path d="M4051 4758 c-30 -11 -33 -36 -16 -133 9 -53 14 -97 30 -240 22 -195
4 -182 264 -184 180 -1 211 1 225 14 22 23 24 11 -28 300 -3 17 -8 44 -11 60
-16 89 -37 152 -56 168 -14 11 -39 17 -73 18 -224 4 -320 3 -335 -3z"/>
<path d="M1505 4750 c-19 -3 -35 -16 -47 -35 -20 -35 -76 -235 -109 -387 -30
-140 -38 -134 202 -131 181 2 184 2 205 26 13 15 24 46 28 78 4 30 13 86 21
124 8 39 16 81 19 95 2 14 9 45 15 70 5 25 13 60 16 79 3 19 7 37 9 40 2 3 0
16 -5 28 -8 22 -11 23 -167 20 -87 -1 -171 -4 -187 -7z"/>
<path d="M4536 4751 c-8 -13 -9 -51 -2 -80 15 -66 52 -248 62 -311 3 -19 7
-44 9 -55 2 -11 4 -28 4 -37 1 -9 11 -28 24 -43 22 -25 22 -25 206 -28 134 -2
188 1 201 10 22 16 20 44 -13 183 -57 238 -90 338 -117 355 -19 12 -367 17
-374 6z"/>
<path d="M4995 4746 c-22 -16 -19 -43 23 -186 17 -58 40 -148 52 -200 29 -129
29 -128 51 -149 18 -16 40 -19 179 -20 201 -2 195 -8 150 152 -36 127 -96 310
-115 347 -27 52 -41 56 -180 59 -71 1 -132 4 -136 6 -3 3 -14 -1 -24 -9z"/>
<path d="M1085 4728 c-32 -25 -98 -208 -160 -440 -26 -100 -27 -99 166 -97
178 2 190 6 207 77 25 102 84 334 99 388 26 96 28 95 -142 93 -125 -2 -149 -5
-170 -21z"/>
<path d="M5375 4736 c-17 -12 -15 -24 44 -202 33 -104 68 -215 77 -246 26 -98
30 -100 175 -103 68 -2 129 1 135 6 16 13 5 60 -53 229 -57 167 -115 295 -139
307 -11 5 -62 10 -114 12 -52 1 -97 4 -101 7 -3 2 -14 -3 -24 -10z"/>
<path d="M775 4727 c-47 -26 -216 -490 -194 -530 8 -13 28 -15 137 -12 147 5
150 6 176 103 9 31 43 140 76 242 33 102 60 191 60 198 0 10 -27 12 -119 11
-66 -1 -127 -7 -136 -12z"/>
<path d="M536 4706 c-25 -25 -83 -152 -144 -316 -59 -159 -69 -199 -52 -210 6
-4 48 -6 93 -3 97 4 110 14 132 92 23 79 81 240 125 347 21 50 35 97 31 103
-5 8 -34 11 -87 9 -61 -2 -83 -7 -98 -22z"/>
<path d="M5670 4707 c0 -14 13 -54 28 -89 16 -34 43 -106 61 -158 18 -52 36
-102 39 -110 6 -18 4 -12 26 -82 21 -70 37 -88 79 -89 18 0 58 -2 90 -3 46 -2
60 0 65 13 11 29 -138 419 -192 501 -23 35 -23 35 -109 38 -87 3 -87 3 -87
-21z"/>
<path d="M428 4713 c-21 -3 -33 -18 -61 -71 -45 -87 -110 -239 -149 -350 -37
-107 -40 -122 -25 -123 40 -3 94 4 105 15 6 6 27 57 46 111 38 110 86 232 135
339 17 38 31 72 31 76 0 7 -38 9 -82 3z"/>
<path d="M5880 4713 c0 -3 25 -65 56 -137 31 -72 76 -187 101 -256 24 -68 49
-130 55 -137 9 -11 118 -20 118 -10 0 15 -71 213 -107 297 -65 152 -113 240
-132 241 -9 0 -33 2 -53 5 -21 2 -38 1 -38 -3z"/>
<path d="M1419 4152 c-81 -3 -104 -15 -114 -61 -3 -11 -7 -29 -9 -38 -2 -10
-7 -40 -10 -68 -4 -27 -11 -79 -16 -115 -28 -208 -30 -288 -7 -305 12 -9 73
-12 213 -11 193 1 196 1 215 25 11 13 20 40 20 65 2 45 3 57 14 196 4 52 9 98
11 101 2 3 6 46 10 95 8 117 8 118 -139 118 -62 1 -146 0 -188 -2z"/>
<path d="M1825 4139 c-22 -18 -27 -35 -40 -154 -3 -27 -8 -63 -10 -80 -6 -50
-19 -227 -19 -273 0 -76 4 -77 252 -77 211 -1 218 0 240 22 17 17 22 34 23 75
2 69 4 118 14 263 11 166 10 214 -4 228 -9 9 -71 12 -222 13 -189 1 -213 -1
-234 -17z"/>
<path d="M2369 4139 c-10 -10 -19 -25 -20 -31 0 -7 -2 -21 -4 -30 -6 -30 -15
-184 -20 -335 -5 -123 -3 -151 10 -168 14 -18 29 -19 235 -20 121 0 233 3 249
8 47 12 47 9 51 337 3 231 3 225 -16 244 -14 14 -48 16 -241 16 -208 -1 -226
-3 -244 -21z"/>
<path d="M2945 4140 c-20 -22 -22 -42 -26 -350 -1 -96 1 -185 5 -197 4 -12 19
-25 34 -30 15 -5 127 -8 250 -8 193 1 225 3 242 18 11 9 20 25 21 34 2 42 -3
413 -6 463 -6 90 -6 90 -275 90 -215 0 -228 -1 -245 -20z"/>
<path d="M3535 4140 c-18 -20 -20 -35 -16 -183 8 -397 6 -380 49 -394 15 -5
127 -9 249 -8 209 0 223 2 238 20 13 17 15 43 10 170 -12 336 -20 393 -57 408
-8 2 -113 5 -234 6 -213 2 -221 1 -239 -19z"/>
<path d="M4113 4145 c-19 -14 -20 -40 -8 -225 11 -169 13 -206 14 -266 1 -35
7 -60 20 -75 19 -23 21 -24 237 -25 211 -1 219 0 240 21 17 17 21 31 18 66
-15 231 -18 264 -30 359 -11 97 -16 116 -35 135 -18 18 -34 20 -229 21 -151 0
-215 -3 -227 -11z"/>
<path d="M4678 4152 c-17 -2 -30 -11 -34 -24 -5 -18 4 -186 11 -198 5 -7 21
-210 24 -296 1 -18 10 -42 20 -55 19 -24 22 -24 215 -25 135 -1 200 2 211 10
10 7 17 28 18 51 1 39 -10 180 -18 220 -2 11 -7 43 -10 70 -14 130 -28 194
-49 219 l-21 26 -170 3 c-93 1 -182 1 -197 -1z"/>
<path d="M690 4142 c-47 -1 -95 -4 -106 -7 -31 -7 -49 -53 -78 -200 -21 -112
-31 -171 -50 -316 -2 -15 1 -37 8 -49 11 -22 16 -22 141 -21 148 2 162 8 170
76 12 98 36 272 40 295 3 14 7 39 10 55 3 17 7 41 10 55 12 66 14 86 7 96 -9
15 -50 19 -152 16z"/>
<path d="M900 4125 c-28 -31 -90 -377 -92 -513 0 -60 7 -62 193 -62 211 0 196
-12 214 180 4 41 9 83 11 93 2 10 6 44 9 75 3 31 12 91 19 132 21 124 25 121
-171 118 -149 -3 -166 -5 -183 -23z"/>
<path d="M5134 4123 c-6 -23 -1 -83 22 -238 8 -56 13 -100 20 -170 9 -101 11
-114 29 -141 15 -24 17 -24 184 -24 177 0 191 3 193 47 4 66 -48 414 -73 491
-17 53 -37 59 -211 61 l-157 2 -7 -28z"/>
<path d="M5554 4133 c-12 -13 -11 -51 6 -133 5 -25 11 -61 14 -80 4 -19 8 -44
10 -55 5 -26 26 -189 30 -238 7 -71 21 -77 173 -77 133 0 134 0 143 25 5 14 8
30 5 37 -2 7 -6 37 -9 66 -6 48 -12 97 -21 148 -13 83 -49 245 -60 271 -16 39
-27 42 -169 45 -76 2 -113 -1 -122 -9z"/>
<path d="M373 4132 c-28 -2 -56 -8 -61 -15 -14 -18 -31 -74 -47 -152 -8 -38
-17 -81 -19 -95 -21 -99 -36 -196 -41 -268 -4 -54 6 -59 114 -57 97 2 105 9
116 85 21 160 27 200 36 240 5 25 12 56 14 70 3 14 9 48 15 75 18 87 18 91 10
105 -8 14 -49 17 -137 12z"/>
<path d="M5881 4121 c-6 -10 -2 -50 10 -106 10 -50 21 -105 24 -124 3 -18 7
-36 9 -40 2 -3 7 -35 11 -71 4 -36 8 -67 10 -70 2 -3 6 -31 9 -64 7 -63 20
-95 39 -97 51 -4 187 -4 188 1 6 26 5 79 -2 115 -4 23 -10 63 -13 86 -3 24 -8
55 -11 69 -2 14 -10 50 -16 80 -19 100 -51 209 -63 219 -6 5 -51 12 -99 14
-74 4 -89 2 -96 -12z"/>
<path d="M161 4103 c-16 -35 -28 -84 -65 -253 -25 -116 -38 -206 -40 -270 l-1
-35 57 -1 c56 -2 57 -1 67 30 6 17 13 54 16 81 7 70 29 190 59 324 35 156 37
148 -29 147 -45 -1 -56 -5 -64 -23z"/>
<path d="M6110 4113 c0 -10 13 -77 29 -148 16 -72 33 -152 36 -180 4 -27 9
-59 11 -70 2 -11 7 -40 10 -65 3 -25 10 -59 15 -75 9 -30 11 -31 67 -30 l57 0
-1 35 c0 19 -4 58 -8 85 -3 28 -9 64 -11 81 -16 117 -79 359 -95 369 -5 3 -32
8 -60 11 -43 4 -50 2 -50 -13z"/>
<path d="M507 3502 c-68 -6 -71 -19 -71 -296 0 -179 3 -250 13 -274 7 -17 16
-32 20 -33 61 -6 264 1 275 10 11 9 13 63 12 295 0 157 -4 287 -8 291 -7 8
-176 12 -241 7z"/>
<path d="M818 3490 c-25 -22 -28 -51 -28 -280 0 -239 3 -277 24 -298 23 -24
329 -26 358 -3 18 15 19 30 18 291 0 231 -3 277 -16 290 -22 22 -330 22 -356
0z"/>
<path d="M1271 3499 c-11 -5 -24 -16 -30 -27 -6 -10 -10 -124 -11 -274 -1
-238 1 -257 19 -279 19 -24 21 -24 216 -25 177 -1 199 0 215 16 17 17 18 43
18 290 0 257 -1 273 -19 288 -17 15 -47 17 -204 18 -101 0 -192 -3 -204 -7z"/>
<path d="M1783 3499 c-11 -4 -24 -16 -28 -26 -5 -10 -9 -130 -10 -268 -2 -256
3 -294 38 -308 8 -3 108 -6 224 -6 190 -1 213 1 233 17 23 18 23 20 22 293 -1
266 -1 274 -22 291 -18 15 -46 17 -228 16 -115 -1 -217 -5 -229 -9z"/>
<path d="M2338 3490 c-23 -18 -23 -20 -23 -290 l0 -272 24 -19 c21 -17 42 -19
251 -19 206 0 230 2 250 18 23 18 23 21 22 273 0 140 -1 262 -1 272 -1 9 -10
26 -21 37 -19 19 -32 20 -250 19 -207 -1 -232 -3 -252 -19z"/>
<path d="M2939 3491 l-24 -19 0 -272 0 -272 24 -19 c21 -17 42 -19 256 -19
214 0 235 2 256 19 l24 19 0 272 0 272 -24 19 c-21 17 -42 19 -256 19 -214 0
-235 -2 -256 -19z"/>
<path d="M3550 3490 c-11 -11 -20 -32 -21 -47 -1 -27 0 -430 1 -485 0 -16 9
-37 20 -48 19 -19 33 -20 250 -20 229 0 231 0 254 23 l24 24 -2 267 c-1 266
-1 268 -24 286 -21 17 -44 19 -252 20 -217 0 -231 -1 -250 -20z"/>
<path d="M4150 3492 c-21 -17 -22 -23 -22 -292 0 -270 0 -274 22 -292 19 -16
46 -17 233 -17 226 0 237 2 255 50 13 33 12 485 0 521 -6 16 -18 32 -27 37 -9
4 -111 8 -228 9 -187 1 -214 -1 -233 -16z"/>
<path d="M4723 3499 c-12 -4 -24 -16 -27 -26 -3 -10 -5 -136 -5 -281 0 -242 1
-264 18 -281 17 -17 36 -19 212 -17 107 1 200 5 207 10 7 4 18 19 23 33 10 27
13 457 4 508 -11 58 -18 60 -223 61 -103 1 -197 -2 -209 -7z"/>
<path d="M5232 3499 c-36 -14 -34 11 -34 -299 1 -287 0 -271 17 -290 12 -14
39 -16 180 -15 186 2 194 4 201 71 7 64 6 436 -1 474 -11 60 -17 62 -188 64
-86 1 -164 -1 -175 -5z"/>
<path d="M5668 3502 c-36 -4 -37 -11 -36 -322 0 -198 3 -258 13 -270 13 -14
70 -17 256 -11 46 2 53 37 53 295 0 270 -7 306 -57 307 -18 0 -70 1 -117 2
-47 1 -97 1 -112 -1z"/>
<path d="M43 3461 c-10 -46 -10 -497 -1 -532 7 -24 11 -26 65 -25 l58 1 0 295
0 295 -57 1 -58 1 -7 -36z"/>
<path d="M198 3478 c-10 -17 -13 -89 -13 -278 0 -189 3 -261 13 -277 12 -21
20 -23 107 -23 61 0 96 4 101 12 10 15 9 561 0 576 -5 8 -41 12 -101 12 -87 0
-95 -2 -107 -22z"/>
<path d="M5984 3488 c-9 -15 -10 -561 0 -576 5 -8 40 -12 102 -12 l95 0 14 33
c18 44 16 511 -3 545 -12 20 -20 22 -107 22 -60 0 -96 -4 -101 -12z"/>
<path d="M6225 3486 c-2 -6 -3 -139 -2 -296 l2 -285 53 -1 c55 -2 63 4 71 46
8 41 7 472 -2 511 -7 35 -7 35 -63 36 -33 0 -57 -4 -59 -11z"/>
<path d="M54 2849 c-3 -5 -3 -24 0 -42 2 -17 8 -54 12 -82 8 -59 7 -56 28
-165 22 -114 61 -259 75 -273 5 -5 33 -12 61 -13 46 -3 50 -2 50 19 -1 19 -19
107 -36 172 -9 36 -42 219 -48 270 -10 79 -18 115 -25 117 -26 6 -112 4 -117
-3z"/>
<path d="M216 2848 c-18 -10 -14 -94 10 -211 3 -16 7 -38 9 -50 13 -96 62
-287 79 -304 16 -16 182 -24 194 -10 10 13 7 47 -10 122 -6 28 -13 57 -14 65
-1 8 -7 38 -13 67 -6 29 -13 74 -17 100 -3 26 -8 55 -9 64 -2 9 -6 40 -10 70
-8 65 -20 89 -43 90 -78 5 -165 3 -176 -3z"/>
<path d="M6002 2852 c-34 -5 -37 -15 -58 -162 -3 -25 -8 -56 -9 -70 -5 -37
-36 -201 -56 -289 -14 -64 -5 -69 99 -64 48 3 92 9 98 14 20 16 78 265 99 419
20 156 21 155 -77 155 -40 0 -83 -1 -96 -3z"/>
<path d="M6219 2844 c-6 -7 -19 -69 -29 -137 -25 -166 -27 -172 -55 -289 -35
-145 -35 -148 18 -144 23 2 49 4 58 5 12 1 23 23 38 79 44 163 85 386 86 467
0 29 -1 30 -52 31 -33 1 -57 -3 -64 -12z"/>
<path d="M464 2839 c-7 -12 -7 -102 0 -128 4 -14 8 -38 21 -137 2 -11 8 -47
15 -80 7 -32 13 -63 14 -69 34 -169 29 -165 190 -166 98 -1 131 2 137 13 10
14 7 38 -15 151 -16 77 -24 129 -31 192 -3 22 -7 56 -10 75 -2 19 -7 55 -11
80 -10 76 -18 80 -170 80 -87 0 -135 -4 -140 -11z"/>
<path d="M820 2835 c-12 -14 -14 -62 -6 -130 19 -152 25 -188 53 -333 23 -118
23 -118 219 -118 155 1 159 2 170 24 7 14 8 38 4 65 -5 23 -11 62 -14 87 -3
25 -8 54 -10 65 -2 11 -6 45 -10 75 -3 30 -10 95 -16 144 -15 139 -8 134 -208
136 -141 1 -171 -2 -182 -15z"/>
<path d="M1264 2835 c-25 -17 -23 -87 7 -310 6 -44 12 -89 14 -100 12 -102 20
-129 39 -151 21 -24 23 -24 196 -25 229 -2 217 -3 226 24 5 12 7 24 7 27 -1 3
-4 34 -7 70 -4 36 -8 76 -10 90 -3 14 -7 63 -11 110 -4 47 -9 99 -10 115 -2
17 -3 49 -4 71 -1 25 -9 51 -20 65 -19 24 -22 24 -215 25 -140 1 -200 -2 -212
-11z"/>
<path d="M1777 2830 c-23 -19 -24 -42 -13 -195 7 -105 13 -167 22 -225 3 -19
7 -55 9 -80 9 -82 14 -84 256 -86 189 -2 213 0 229 16 18 18 18 26 6 210 -3
47 -8 132 -11 190 -7 128 -12 155 -32 171 -11 10 -71 14 -230 14 -186 1 -218
-1 -236 -15z"/>
<path d="M2358 2837 c-13 -4 -26 -13 -31 -20 -7 -11 -1 -298 8 -382 3 -22 7
-67 10 -100 7 -95 4 -94 270 -94 l224 -1 19 24 c16 21 18 38 15 123 -1 54 -4
168 -7 253 -2 85 -7 163 -11 172 -4 10 -17 20 -28 24 -31 10 -443 11 -469 1z"/>
<path d="M2962 2839 c-48 -18 -49 -23 -39 -478 3 -125 -5 -121 277 -121 265 0
261 -1 266 98 7 132 6 449 0 469 -4 12 -17 25 -29 29 -27 9 -452 11 -475 3z"/>
<path d="M3561 2836 c-31 -14 -37 -49 -40 -236 -1 -96 -4 -206 -5 -244 -2 -54
2 -73 17 -92 l19 -24 224 0 c256 1 260 2 268 80 17 142 30 451 22 484 -3 14
-16 28 -29 32 -31 11 -452 11 -476 0z"/>
<path d="M4143 2823 c-16 -16 -23 -35 -24 -65 -1 -64 -15 -307 -24 -430 -6
-84 -8 -83 239 -83 258 0 249 -4 265 120 16 127 20 164 26 260 4 50 8 109 9
133 2 30 -2 50 -14 65 -18 21 -24 22 -237 22 -213 1 -219 0 -240 -22z"/>
<path d="M4709 2831 c-22 -18 -26 -33 -34 -139 -10 -140 -16 -207 -20 -232 -2
-14 -7 -50 -11 -80 -3 -30 -6 -57 -7 -60 -1 -3 2 -20 6 -37 8 -38 -12 -36 227
-34 228 1 211 -16 246 251 12 90 14 109 19 160 14 132 14 148 -5 168 -17 18
-32 19 -210 19 -159 -1 -196 -3 -211 -16z"/>
<path d="M5218 2839 c-22 -12 -34 -60 -43 -164 -4 -44 -9 -88 -10 -97 -2 -9
-6 -41 -9 -70 -4 -29 -12 -90 -19 -136 -21 -126 -23 -124 173 -120 133 3 162
6 178 21 27 24 49 134 88 437 8 63 6 110 -6 125 -10 12 -40 15 -174 15 -89 0
-169 -5 -178 -11z"/>
<path d="M5636 2835 c-16 -16 -22 -43 -31 -130 -3 -27 -8 -63 -10 -80 -3 -16
-7 -46 -9 -65 -2 -19 -14 -86 -26 -148 -22 -118 -20 -151 8 -153 71 -4 239 4
253 12 16 8 28 31 36 69 40 202 53 275 58 320 4 30 10 73 14 95 4 22 4 51 1
65 -6 25 -6 25 -142 28 -112 2 -139 0 -152 -13z"/>
<path d="M191 2232 c-15 -5 12 -95 76 -252 57 -139 133 -290 146 -291 6 0 32
-3 56 -6 42 -5 43 -4 36 18 -4 13 -15 42 -25 64 -57 129 -104 246 -131 327
-42 126 -48 135 -103 140 -25 1 -50 2 -55 0z"/>
<path d="M6147 2232 c-58 -4 -64 -11 -113 -157 -20 -60 -45 -128 -55 -150 -9
-22 -32 -74 -49 -115 -18 -41 -36 -79 -41 -84 -5 -6 -9 -18 -9 -27 0 -17 15
-18 97 -10 26 3 200 398 219 500 3 14 7 28 10 32 7 12 -7 14 -59 11z"/>
<path d="M340 2220 c-8 -5 -6 -26 5 -71 31 -119 169 -448 195 -464 7 -4 50
-10 95 -12 65 -4 83 -2 88 9 3 8 -10 50 -29 94 -19 43 -60 153 -91 244 -30 91
-63 173 -72 182 -12 13 -37 18 -98 21 -46 2 -88 0 -93 -3z"/>
<path d="M5914 2222 c-23 -2 -49 -11 -57 -20 -8 -9 -34 -74 -57 -144 -22 -70
-63 -181 -89 -245 -27 -65 -46 -124 -44 -131 8 -19 160 -13 184 8 38 31 196
428 202 505 2 29 1 30 -48 30 -27 0 -69 -1 -91 -3z"/>
<path d="M581 2197 c-15 -41 137 -466 184 -512 18 -18 34 -21 124 -23 56 -1
106 -4 111 -7 4 -3 13 2 20 10 11 13 2 48 -49 203 -33 103 -68 213 -77 244
-26 98 -30 101 -178 103 -121 3 -128 2 -135 -18z"/>
<path d="M5567 2212 c-38 -5 -51 -28 -92 -172 -20 -69 -38 -132 -42 -140 -28
-73 -73 -208 -73 -223 0 -16 10 -18 121 -16 93 2 125 6 140 18 41 34 193 444
187 505 l-3 31 -105 0 c-58 0 -117 -1 -133 -3z"/>
<path d="M922 2197 c-10 -11 0 -81 22 -157 58 -198 106 -329 131 -359 l24 -27
155 -3 c154 -2 154 -2 158 21 2 13 -9 64 -25 113 -15 50 -43 155 -63 235 -22
90 -43 153 -55 166 -18 19 -32 21 -178 23 -121 1 -161 -2 -169 -12z"/>
<path d="M1356 2195 c-27 -14 -27 -38 1 -160 43 -184 95 -354 114 -371 16 -14
48 -17 199 -21 179 -4 180 -4 188 18 5 14 3 47 -5 83 -12 58 -39 191 -50 246
-26 144 -35 177 -51 192 -16 16 -39 19 -197 21 -108 1 -187 -2 -199 -8z"/>
<path d="M4703 2202 c-63 -4 -87 -28 -97 -99 -7 -50 -46 -250 -70 -363 -15
-73 -13 -88 18 -95 32 -8 341 1 355 10 23 14 48 85 95 268 53 206 60 251 39
268 -14 12 -214 18 -340 11z"/>
<path d="M5126 2189 c-22 -17 -39 -61 -51 -129 -7 -38 -94 -361 -101 -372 -2
-3 -1 -14 2 -23 6 -15 24 -16 161 -13 152 3 155 3 177 29 24 28 63 131 119
319 42 138 49 186 32 200 -8 7 -69 10 -165 9 -127 -2 -156 -5 -174 -20z"/>
<path d="M1836 2185 c-9 -9 -16 -24 -16 -33 0 -43 73 -423 90 -467 16 -41 41
-47 237 -48 208 -2 222 1 217 55 -3 36 -22 188 -28 228 -2 14 -7 52 -11 85 -3
33 -8 80 -11 105 -4 30 -13 52 -28 66 -22 20 -36 21 -229 23 -176 1 -207 -1
-221 -14z"/>
<path d="M2387 2185 c-19 -9 -22 -19 -22 -70 0 -33 5 -103 11 -155 7 -52 14
-115 17 -140 15 -127 20 -150 39 -167 18 -16 43 -18 226 -19 188 -1 207 1 224
18 19 19 19 36 3 348 -2 36 -4 84 -4 106 -1 25 -9 51 -20 65 -19 23 -21 24
-235 25 -141 0 -224 -3 -239 -11z"/>
<path d="M3551 2188 c-39 -14 -40 -19 -56 -395 -8 -171 -23 -161 240 -159 205
1 207 1 226 25 10 13 19 31 20 40 0 9 2 25 4 36 6 31 14 94 20 160 4 33 8 71
10 85 3 14 7 61 11 105 9 114 19 110 -242 110 -118 0 -222 -3 -233 -7z"/>
<path d="M4101 2176 c-16 -17 -24 -56 -41 -201 -12 -99 -23 -193 -26 -210 -20
-136 -28 -131 210 -128 146 2 193 5 211 17 20 13 35 53 51 131 2 11 6 31 9 45
2 14 7 36 10 50 2 14 7 39 10 55 2 17 7 41 10 55 8 44 15 84 21 131 10 79 6
80 -237 78 -198 -2 -209 -3 -228 -23z"/>
<path d="M2965 2176 c-15 -11 -19 -27 -19 -87 0 -133 13 -405 20 -423 12 -30
50 -36 238 -36 163 0 185 2 199 18 22 24 25 54 32 291 4 173 3 208 -10 228
-15 23 -16 23 -228 23 -164 0 -217 -3 -232 -14z"/>
<path d="M430 1642 c0 -15 129 -223 198 -321 98 -139 120 -161 170 -167 45 -6
48 -4 30 29 -9 18 -4 16 24 -9 30 -26 43 -31 98 -33 35 -1 67 -4 72 -7 19 -12
6 36 -20 72 -35 49 -147 236 -197 331 -21 39 -48 76 -59 82 -12 5 -56 12 -99
14 l-78 4 6 -26 c11 -42 192 -339 232 -379 18 -18 16 -27 -2 -12 -8 7 -25 29
-37 49 -12 20 -28 42 -35 49 -7 7 -13 17 -13 22 0 5 -6 15 -13 22 -7 7 -45 67
-85 133 -39 66 -75 125 -79 132 -10 14 -113 28 -113 15z"/>
<path d="M5873 1638 c-23 -6 -42 -32 -103 -138 -41 -71 -79 -130 -84 -130 -4
0 0 12 10 28 46 70 115 196 117 215 1 15 -3 22 -15 21 -10 0 -47 -1 -83 -2
-77 -2 -87 -11 -150 -130 -51 -96 -98 -176 -158 -269 -50 -76 -58 -104 -29
-97 9 2 43 5 75 7 70 5 82 16 163 133 32 46 59 82 61 80 2 -2 -25 -46 -61 -97
-37 -51 -66 -97 -66 -102 0 -8 75 0 92 10 38 22 318 442 318 476 0 7 -55 3
-87 -5z"/>
<path d="M807 1624 c-13 -13 -7 -33 27 -101 79 -159 202 -353 239 -377 24 -17
199 -28 220 -14 9 6 6 18 -12 50 -72 131 -142 265 -167 324 -43 99 -62 111
-178 113 -53 1 -102 4 -109 7 -7 2 -16 1 -20 -2z"/>
<path d="M5538 1625 c-2 -2 -44 -5 -94 -6 -50 -1 -97 -7 -106 -13 -8 -6 -52
-85 -98 -176 -45 -91 -90 -176 -99 -190 -24 -34 -51 -90 -51 -105 0 -9 28 -11
108 -8 128 5 130 6 220 151 122 196 192 340 166 343 -5 0 -17 2 -26 4 -9 2
-18 1 -20 0z"/>
<path d="M1131 1612 c-20 -3 -22 -8 -17 -35 9 -49 183 -391 216 -426 25 -26
38 -31 78 -32 26 0 84 -2 129 -4 110 -4 113 1 66 101 -20 43 -62 142 -93 218
-38 94 -64 146 -81 157 -19 14 -49 19 -149 21 -69 2 -136 1 -149 0z"/>
<path d="M5088 1610 c-141 -6 -141 -6 -191 -135 -19 -49 -60 -146 -90 -213
-31 -68 -53 -130 -51 -136 5 -12 40 -13 245 -7 45 2 84 55 184 254 86 171 109
236 88 238 -37 3 -85 3 -185 -1z"/>
<path d="M1508 1599 c-19 -12 -11 -53 37 -174 66 -166 118 -277 141 -297 15
-13 47 -17 169 -21 83 -2 156 -2 163 1 19 6 15 22 -37 185 -27 84 -57 177 -66
208 -24 84 -42 99 -123 100 -37 0 -113 1 -170 2 -57 2 -108 0 -114 -4z"/>
<path d="M4603 1600 c-95 -6 -103 -12 -128 -100 -9 -30 -38 -123 -65 -207 -53
-162 -57 -179 -38 -185 7 -3 80 -3 163 -1 150 4 150 4 176 32 26 28 145 295
172 388 9 30 12 56 6 64 -9 15 -128 19 -286 9z"/>
<path d="M1948 1583 c-14 -17 -2 -70 68 -292 30 -95 53 -151 69 -167 25 -25
48 -26 320 -26 69 0 72 9 41 153 -25 114 -36 171 -40 199 -21 148 -11 143
-251 146 -160 1 -197 -1 -207 -13z"/>
<path d="M2472 1592 c-37 -5 -41 -37 -22 -152 51 -292 60 -325 94 -336 11 -4
97 -8 191 -9 192 -1 207 4 200 67 -2 18 -6 69 -9 113 -22 340 -11 315 -139
316 -50 0 -137 1 -192 2 -55 1 -110 1 -123 -1z"/>
<path d="M3597 1590 c-98 -6 -116 -17 -118 -74 0 -17 -2 -51 -4 -76 -2 -25 -6
-88 -10 -140 -4 -52 -8 -112 -10 -133 -6 -69 6 -74 201 -72 93 1 179 5 190 9
12 4 27 19 33 34 9 25 34 137 47 222 4 19 12 64 19 100 12 68 11 108 -5 124
-10 10 -210 14 -343 6z"/>
<path d="M4029 1582 c-18 -12 -32 -52 -43 -122 -3 -19 -17 -89 -31 -155 -39
-183 -39 -180 -22 -197 8 -8 26 -14 39 -12 12 1 87 3 166 3 181 1 174 -4 236
192 66 209 81 278 67 292 -18 18 -386 17 -412 -1z"/>
<path d="M2966 1568 c-9 -16 -13 -43 -11 -83 19 -352 20 -357 43 -376 29 -23
373 -22 397 2 20 20 25 66 40 389 1 25 -4 55 -12 68 -13 22 -16 22 -228 22
-212 0 -215 0 -229 -22z"/>
<path d="M790 1120 c0 -21 270 -300 360 -371 26 -21 61 -39 84 -42 l39 -6 -24
26 -24 26 35 -25 c25 -18 54 -28 98 -33 34 -4 62 -3 62 2 0 5 -30 41 -67 80
-100 104 -131 139 -211 236 -40 48 -78 87 -85 87 -7 0 -43 3 -80 6 l-69 6 15
-28 c8 -16 24 -38 36 -48 12 -11 21 -23 21 -28 0 -4 -17 11 -37 34 -21 24 -44
49 -52 57 -13 15 -101 33 -101 21z m280 -213 c0 -4 -18 13 -40 37 -22 24 -40
46 -40 49 0 4 18 -13 40 -37 22 -24 40 -46 40 -49z m50 -43 c0 -2 -9 0 -20 6
-11 6 -20 13 -20 16 0 2 9 0 20 -6 11 -6 20 -13 20 -16z m45 -44 c3 -6 -1 -7
-9 -4 -18 7 -21 14 -7 14 6 0 13 -4 16 -10z"/>
<path d="M5551 1118 c-36 -6 -52 -17 -85 -55 -23 -27 -66 -73 -96 -103 -51
-52 -52 -52 -9 -5 59 64 119 140 119 149 0 12 -151 -3 -168 -16 -8 -7 -50 -56
-92 -108 -42 -52 -116 -135 -164 -183 -47 -49 -86 -93 -86 -98 0 -19 120 -1
153 23 32 22 32 22 13 0 l-18 -21 38 6 c50 8 97 45 270 218 128 128 183 191
173 199 -2 1 -24 -1 -48 -6z m-321 -301 c0 -2 -12 -14 -27 -28 l-28 -24 24 28
c23 25 31 32 31 24z"/>
<path d="M1116 1092 c-24 -23 307 -399 354 -402 8 -1 24 -3 34 -5 32 -6 136
-9 141 -4 2 3 -29 45 -70 94 -41 50 -101 126 -132 170 -88 124 -113 145 -170
146 -26 0 -71 2 -100 4 -29 1 -54 0 -57 -3z"/>
<path d="M5129 1090 c-36 -3 -73 -11 -82 -19 -9 -7 -44 -52 -78 -100 -34 -47
-94 -124 -133 -170 -101 -119 -102 -121 -80 -122 11 -1 33 0 49 1 17 1 48 3
70 5 22 1 44 3 49 4 37 6 356 364 356 401 0 8 -47 8 -151 0z"/>
<path d="M1391 1077 c-12 -12 34 -86 135 -217 142 -183 148 -187 258 -189 46
-1 93 -4 105 -6 11 -2 23 1 27 6 3 6 -32 67 -79 137 -46 70 -101 155 -122 190
-20 35 -47 67 -59 72 -33 12 -254 18 -265 7z"/>
<path d="M4814 1080 c-45 -3 -89 -12 -97 -19 -9 -7 -33 -43 -54 -79 -30 -55
-79 -129 -188 -287 -17 -25 4 -30 108 -27 69 2 109 8 126 19 64 38 311 367
291 387 -12 12 -65 14 -186 6z"/>
<path d="M1743 1072 c-13 -2 -23 -7 -23 -12 0 -46 222 -389 253 -391 7 0 21
-2 32 -4 18 -4 193 -8 223 -6 21 2 14 23 -51 151 -34 69 -72 148 -83 176 -31
76 -46 82 -199 86 -71 2 -140 2 -152 0z"/>
<path d="M4440 1072 c-98 -3 -119 -16 -147 -91 -9 -25 -45 -102 -80 -171 -35
-68 -63 -130 -63 -136 0 -17 36 -20 162 -13 67 3 113 10 123 19 24 20 166 236
205 312 19 37 31 70 27 74 -8 9 -93 11 -227 6z"/>
<path d="M2118 1059 c-17 -11 5 -73 82 -234 85 -178 69 -167 243 -172 86 -2
148 1 152 6 11 19 -90 358 -115 385 -16 17 -36 19 -184 21 -91 1 -171 -2 -178
-6z"/>
<path d="M3632 1060 c-181 -6 -191 -9 -193 -74 0 -17 -2 -40 -4 -50 -8 -40
-19 -173 -19 -226 l-1 -55 156 -3 c138 -2 157 -1 171 15 28 32 113 320 106
363 -4 33 -26 36 -216 30z"/>
<path d="M3949 1062 c-37 -4 -54 -27 -73 -97 -9 -33 -33 -110 -53 -172 -19
-62 -33 -119 -29 -128 5 -14 25 -16 152 -13 141 4 148 5 167 29 23 28 147 282
147 302 0 7 5 18 11 24 6 6 9 23 5 36 l-6 24 -147 -1 c-82 0 -160 -2 -174 -4z"/>
<path d="M2544 1045 c-8 -19 0 -63 25 -155 41 -147 63 -209 80 -224 13 -12 48
-15 162 -17 81 -1 152 2 159 6 9 6 11 27 6 79 -7 82 -16 162 -21 191 -2 11 -4
37 -4 58 -1 23 -9 45 -21 57 -19 19 -33 20 -200 20 -149 0 -182 -3 -186 -15z"/>
<path d="M3000 1045 c-9 -11 -11 -42 -6 -118 16 -248 19 -263 54 -274 21 -7
187 -9 295 -4 23 1 33 31 41 121 3 41 9 104 13 140 9 89 7 118 -7 135 -18 22
-372 22 -390 0z"/>
<path d="M1240 679 c0 -29 430 -304 492 -314 18 -3 57 -9 86 -14 29 -4 55 -4
58 0 3 5 13 5 23 0 18 -10 138 -21 145 -13 3 2 -23 25 -57 50 -68 51 -188 152
-227 192 -55 57 -82 69 -174 74 l-89 5 34 -36 c19 -20 52 -48 73 -64 21 -16
34 -29 29 -29 -6 0 -33 19 -59 43 -85 75 -108 87 -175 93 l-63 5 20 -22 19
-22 -31 22 c-33 24 -104 45 -104 30z m425 -169 c3 -6 -1 -7 -9 -4 -18 7 -21
14 -7 14 6 0 13 -4 16 -10z"/>
<path d="M5113 680 c-18 -4 -40 -13 -48 -20 -11 -9 -15 -10 -15 0 0 8 -17 10
-59 7 -63 -5 -85 -17 -193 -106 -35 -30 -28 -21 22 27 l75 71 -50 -4 c-27 -2
-69 -4 -92 -4 -38 -1 -51 -9 -145 -92 -57 -51 -138 -118 -180 -150 -42 -33
-79 -63 -82 -68 -6 -9 83 -5 132 5 13 3 61 7 107 9 85 4 86 5 205 73 121 70
360 237 360 253 0 5 -1 9 -2 8 -2 -1 -18 -5 -35 -9z m-373 -164 c0 -2 -8 -10
-17 -17 -16 -13 -17 -12 -4 4 13 16 21 21 21 13z m-40 -30 c0 -2 -8 -10 -17
-17 -16 -13 -17 -12 -4 4 13 16 21 21 21 13z m-40 -31 c0 -2 -10 -9 -22 -15
-22 -11 -22 -10 -4 4 21 17 26 19 26 11z"/>
<path d="M1730 636 c0 -20 147 -154 271 -246 78 -58 83 -60 142 -61 34 0 72
-2 85 -5 12 -2 22 0 22 4 0 5 -37 44 -82 88 -46 43 -105 104 -132 134 -73 83
-86 89 -204 93 -63 2 -102 0 -102 -7z"/>
<path d="M4512 642 l-73 -3 -62 -66 c-34 -36 -101 -104 -149 -151 -48 -47 -85
-89 -83 -92 2 -4 39 -5 82 -3 88 5 100 11 223 110 106 86 210 183 210 197 0
12 -19 13 -148 8z"/>
<path d="M2005 630 c-13 -20 214 -264 273 -294 30 -15 212 -23 212 -8 0 4 -19
31 -42 58 -24 28 -70 89 -103 137 -33 47 -69 91 -80 97 -23 12 -253 21 -260
10z"/>
<path d="M4195 632 c-68 -3 -88 -16 -131 -81 -20 -31 -66 -93 -100 -138 -35
-45 -64 -84 -64 -87 0 -3 42 -6 93 -6 113 0 124 6 248 131 93 94 153 168 144
178 -6 5 -112 8 -190 3z"/>
<path d="M2325 620 c-8 -13 5 -39 59 -120 60 -91 122 -166 144 -176 10 -4 63
-8 120 -9 100 -2 102 -2 102 21 0 12 -4 25 -9 28 -5 3 -32 60 -61 125 -29 66
-60 123 -69 126 -25 11 -280 15 -286 5z"/>
<path d="M2687 622 c-10 -2 -17 -13 -17 -26 0 -39 93 -252 120 -273 10 -9 51
-12 130 -10 128 2 118 -6 106 81 -24 175 -35 215 -59 221 -25 6 -256 12 -280
7z"/>
<path d="M3507 620 c-69 -4 -100 -9 -106 -19 -5 -8 -12 -39 -16 -70 -4 -31
-13 -86 -21 -123 -20 -99 -21 -98 110 -98 61 0 116 4 123 8 12 8 86 159 116
238 8 22 12 46 8 52 -8 14 -87 19 -214 12z"/>
<path d="M3804 622 c-32 -4 -48 -27 -87 -117 -19 -44 -46 -101 -59 -127 -14
-25 -23 -51 -19 -56 8 -14 200 -9 228 6 21 12 139 162 182 235 36 58 30 62
-105 62 -65 0 -129 -1 -140 -3z"/>
<path d="M3033 605 c-6 -18 5 -145 22 -235 11 -58 17 -60 140 -60 126 0 131 3
140 66 3 21 7 48 10 59 10 52 16 138 11 160 l-6 25 -156 0 c-130 0 -156 -2
-161 -15z"/>
<path d="M1760 343 c0 -7 195 -97 276 -128 151 -58 267 -93 322 -97 6 -1 12
-5 12 -9 0 -6 25 -13 90 -26 8 -1 58 -12 110 -22 109 -23 127 -26 270 -45 101
-13 645 -16 695 -3 11 2 45 8 75 11 69 8 213 34 285 51 6 1 29 6 53 10 23 4
45 11 48 16 3 5 -8 7 -23 4 -42 -7 -175 -14 -170 -9 15 15 185 23 206 10 9 -6
12 -5 7 2 -4 6 1 11 11 10 65 -2 309 82 501 172 104 50 127 66 70 49 -18 -5
-53 -9 -78 -9 -25 -1 -56 -7 -70 -15 -28 -16 -53 -20 -30 -5 27 19 -102 8
-143 -11 -29 -13 -36 -14 -27 -3 11 12 2 14 -65 13 -74 -1 -79 -3 -143 -46
-102 -68 -110 -70 -24 -4 24 19 41 36 38 38 -3 3 -44 5 -92 4 -93 -2 -98 -4
-167 -67 -23 -22 -60 -52 -82 -67 -39 -28 -40 -28 -10 -2 100 89 126 116 120
124 -3 6 -50 8 -108 6 -89 -3 -104 -6 -117 -24 -45 -63 -99 -131 -114 -146
-14 -14 -15 -20 -5 -26 7 -4 17 -5 21 -3 4 3 8 1 8 -4 0 -5 -16 -9 -35 -9 -19
0 -43 -7 -53 -16 -10 -10 -23 -17 -28 -17 -5 0 -1 5 9 11 9 5 17 13 17 17 0 8
-136 0 -143 -8 -2 -3 -9 -14 -16 -25 -10 -18 -11 -17 -5 8 l6 27 -64 0 c-36 0
-68 -3 -71 -6 -3 -4 -2 -16 4 -28 10 -20 10 -20 -5 -2 -9 11 -16 23 -16 28 0
4 -7 8 -16 8 -12 0 -14 3 -6 12 10 13 8 21 -32 153 l-13 40 -116 3 c-83 2
-117 -1 -117 -9 0 -11 68 -109 110 -158 13 -15 32 -24 54 -25 36 -1 62 -15 30
-15 -11 -1 -26 -1 -34 -1 -8 -1 -41 0 -73 2 -32 2 -60 0 -63 -3 -5 -9 -65 12
-82 29 -16 14 -8 16 17 3 24 -13 151 -24 151 -13 0 5 -14 24 -31 43 -17 19
-49 60 -71 92 -23 31 -46 57 -52 58 -74 6 -206 4 -206 -3 0 -8 24 -31 125
-123 17 -14 23 -23 15 -19 -18 10 -39 27 -102 84 -28 25 -60 50 -72 57 -23 12
-181 22 -191 11 -6 -5 24 -33 75 -71 43 -31 -2 -5 -65 38 -56 38 -65 41 -139
43 -71 3 -78 2 -67 -12 11 -13 9 -13 -20 1 -37 18 -174 31 -149 14 8 -6 10
-11 5 -11 -6 0 -16 5 -22 11 -6 6 -37 13 -69 16 -33 2 -74 8 -91 13 -18 5 -33
6 -33 3z m2155 -163 c-3 -5 -12 -10 -18 -10 -7 0 -6 4 3 10 19 12 23 12 15 0z
m-1501 -69 c4 -5 -3 -7 -14 -4 -23 6 -26 13 -6 13 8 0 17 -4 20 -9z m136 -5
c47 -2 112 -4 144 -5 33 -1 56 -4 52 -8 -6 -6 -75 -6 -191 2 -22 1 -59 3 -83
4 -25 0 -41 5 -37 11 3 5 11 7 18 5 7 -3 50 -7 97 -9z m1084 2 c-5 -8 14 -10
74 -5 47 3 82 1 82 -4 0 -9 -10 -10 -127 -11 -32 0 -68 -4 -80 -9 -14 -5 -23
-5 -23 1 0 5 -10 7 -21 5 -12 -3 -19 -1 -15 2 4 4 26 9 48 10 23 1 46 7 52 13
13 13 19 13 10 -2z m-564 -18 c0 -5 -4 -10 -10 -10 -5 0 -10 5 -10 10 0 6 5
10 10 10 6 0 10 -4 10 -10z"/>
<path d="M3079 280 c-3 -26 -2 -38 8 -85 25 -107 23 -105 108 -105 73 0 76 1
86 27 15 41 36 147 31 161 -5 15 -231 17 -233 2z"/>
<path d="M3345 280 c-3 -5 -14 -40 -24 -77 -11 -37 -22 -78 -26 -90 -7 -21 -5
-22 66 -19 41 2 77 4 81 5 20 3 138 160 138 182 0 12 -227 11 -235 -1z"/>
</g>
</svg>
